# xmcd
#
# Track frame offsets: 
#        150
#        11033
#        22687
#        34331
#        46263
#        55156
#        67224
#        78041
#        90334
#        103723
#        115858
#        126488
#        138616
#        148793
#        157790
#        168575
#        180266
#        188857
#        199901
#        210261
#        218838
#        227892
#        239277
#        251588
#        260863
#        269948
#        281956
#        297313
#
# Disc length: 4145 seconds
#
# Revision: 0
# Processed by: cddbd v1.5.1PL0 Copyright (c) Steve Scherf et al.
# Submitted via: ExactAudioCopy v0.95a4
#
DISCID=a7102f1c
DTITLE=Various Artist - Foot Loose And Fancy Free
DYEAR=1900
DGENRE=Country
TTITLE0=Cecil Lee and His Western Swing Band - I'm An Ordinary Man
TTITLE1=Pal Thibodeaux - Port Arthur Boogie
TTITLE2=Tommy Kizziah and His West Coast Ramblers - Long Tom Boogie #1 (
TTITLE2=Inst.)
TTITLE3=Shorty Holloway and His Prarie Ramblers - I'm A Married Man
TTITLE4=Archie Jefferies and The Blue Flame Boys - One For The Money, Tw
TTITLE4=o For The Show
TTITLE5=Junior Reed and His Playboys Of Texas - Won't You Come Home
TTITLE6=Forrest Field - My Pretty Little Japanese
TTITLE7=Doc Bryant and His National Jamboree Gang - Cotton Pickin' Boogi
TTITLE7=e
TTITLE8=Shorty Holloway and His Prarie Ramblers - Why Can't I Go Back
TTITLE9=Harry De Priest With Roger Crandall and His Barn Dance Boys - Ch
TTITLE9=asing After You
TTITLE10=Tommy Kizziah and His West Coast Ramblers - Long Tom Boogie #2
TTITLE11=Jack Turner and His Oklahoma Playboys - Too Blue to Cry
TTITLE12=Frank Olechea (vcl) As Frank and Ernie and Their Blue Mountain Bo
TTITLE12=ys - Foot Loose and Fancy Free
TTITLE13=Billie Lane With Dave Spielman and His Rhythm Rangers - It's Pa
TTITLE13=w Who Pays
TTITLE14=Long Tom Kizzah - Cottontail Stomp
TTITLE15=Betty Jo and Johnny Starr - Peach Picking Time In Georgia
TTITLE16=Ernie Oleachea and His Blue Mountain Boys - Blue Blue Eyes
TTITLE17=Tommy Kizziah and His West Coast Ramblers - Ramblers Boogie (In
TTITLE17=st.)
TTITLE18=Hank Crow and His Raven River Ramblers - Crazy 'Bout You
TTITLE19=Hank Crow and Jeanne Black and His Raven River Ramblers - Who's G
TTITLE19=onna Know
TTITLE20=Bill Griffith and The Jack Pine Ramblers - Autograph Book
TTITLE21=Shorty Holloway and His Prarie Ramblers - Telephone blues
TTITLE22=Shorty Holloway and His Prarie Ramblers - Butterflies In My Hea
TTITLE22=rt
TTITLE23=Billy Scott - You're Bragging Boy
TTITLE24=Rusty Ridgel and His Western Ramblers - Careless Lover
TTITLE25=Shorty Holloway and His Prarie Ramblers - Cotton' Pickin' Boogi
TTITLE25=e
TTITLE26=Tiny Stokes and The Frontiersmen - Blackfoot Boogie
TTITLE27=Junior Reed and His Playboys Of Texas - Stop, Look And Listen
EXTD=
EXTT0=
EXTT1=
EXTT2=
EXTT3=
EXTT4=
EXTT5=
EXTT6=
EXTT7=
EXTT8=
EXTT9=
EXTT10=
EXTT11=
EXTT12=
EXTT13=
EXTT14=
EXTT15=
EXTT16=
EXTT17=
EXTT18=
EXTT19=
EXTT20=
EXTT21=
EXTT22=
EXTT23=
EXTT24=
EXTT25=
EXTT26=
EXTT27=
PLAYORDER=
